<svg width="16" height="16" viewBox="0 0 16 16" fill="none" xmlns="http://www.w3.org/2000/svg">
<g clip-path="url(#clip0)">
<path d="M15 0H14C14 0 13 0 13 1C13 1.5 12.5 2 12 2C12 1.4 11.6 1 11 1H10C9.4 1 9 1.5 9 2V3V6H7V3V2C7 1.4 6.6 1 6 1H5C4.4 1 4 1.4 4 2C3.5 2 3 1.6 3 1C3 0 2 0 2 0H1C0.4 0 0 0.5 0 1V15C0 15.6 0.4 16 1 16H2C2 16 2.9 16 2.9 15C2.9 14.5 3.4 14 3.9 14H4C4 14.6 4.4 15 5 15H6C6.6 15 7 14.6 7 14V13V10H9V13V14C9 14.6 9.4 15 10 15H11C11.6 15 12 14.6 12 14H12.1C12.6 14 13.1 14.4 13.1 15C13.1 16.1 14 16 14 16H15C15.6 16 16 15.5 16 15V1C16 0.5 15.6 0 15 0Z" fill="white"/>
<path d="M15 0H14C14 0 13 0 13 1C13 1.5 12.5 2 12 2C12 1.4 11.6 1 11 1H10C9.4 1 9 1.5 9 2V3V6H7V3V2C7 1.4 6.6 1 6 1H5C4.4 1 4 1.4 4 2C3.5 2 3 1.6 3 1C3 0 2 0 2 0H1C0.4 0 0 0.5 0 1V15C0 15.6 0.4 16 1 16H2C2.1 16 2.9 16 2.9 15C2.9 14.5 3.4 14 3.9 14H4C4 14.6 4.4 15 5 15H6C6.6 15 7 14.6 7 14V13V10H9V13V14C9 14.6 9.4 15 10 15H11C11.6 15 12 14.6 12 14H12.1C12.6 14 13.1 14.4 13.1 15C13.1 16 13.9 16 14 16H15C15.6 16 16 15.5 16 15V1C16 0.5 15.6 0 15 0ZM6 13V14H5V13H4H3.9C3.4 13 2.9 13.2 2.5 13.6C2.1 14 2 14.5 2 15H1V1H1.9C1.9 1.5 2.1 2 2.5 2.4C3 2.8 3.5 3 4 3H5V2H6V3V6V10V13ZM7 9V7H9V9H7ZM15 15H14C14 14.5 13.9 14 13.5 13.6C13.1 13.2 12.7 13 12.1 13H12H11V14H10V13V10V6V3V2H11V3H12C12.5 3 13 2.8 13.4 2.4C13.8 2 14 1.6 14 1H15V15Z" fill="#757575"/>
</g>
<defs>
<clipPath id="clip0">
<rect width="16" height="16" fill="white"/>
</clipPath>
</defs>
</svg>
